HIERARCHY
ROOT Hips
{
    OFFSET 0.000000 0.000000 0.000000
    CHANNELS 6 Xposition Yposition Zposition Zrotation Xrotation Yrotation
    JOINT Spine
    {
        OFFSET -0.000000 7.236184 0.000000
        CHANNELS 3 Zrotation Xrotation Yrotation
        JOINT Spine1
        {
            OFFSET -0.000000 20.420147 0.000000
            CHANNELS 3 Zrotation Xrotation Yrotation
            JOINT Neck
            {
                OFFSET -0.000000 20.336288 1.848754
                CHANNELS 3 Zrotation Xrotation Yrotation
                JOINT Head
                {
                    OFFSET -0.000000 12.354461 -1.764923
                    CHANNELS 3 Zrotation Xrotation Yrotation
                    End Site
                    {
                        OFFSET -0.000000 22.061537 0.000000
                    }
                }
            }
            JOINT LeftShoulder
            {
                OFFSET 3.573296 18.396038 -0.314103
                CHANNELS 3 Zrotation Xrotation Yrotation
                JOINT LeftArm
                {
                    OFFSET 10.880760 0.000000 0.000000
                    CHANNELS 3 Zrotation Xrotation Yrotation
                    JOINT LeftForeArm
                    {
                        OFFSET 27.185530 0.000000 0.000000
                        CHANNELS 3 Zrotation Xrotation Yrotation
                        JOINT LeftHand
                        {
                            OFFSET 27.825975 0.000000 0.000000
                            CHANNELS 3 Zrotation Xrotation Yrotation
                            End Site
                            {
                                OFFSET 13.236923 0.000000 0.000000
                            }
                        }
                    }
                }
            }
            JOINT RightShoulder
            {
                OFFSET -3.474926 18.396038 -0.314103
                CHANNELS 3 Zrotation Xrotation Yrotation
                JOINT RightArm
                {
                    OFFSET -10.880760 0.000000 0.000000
                    CHANNELS 3 Zrotation Xrotation Yrotation
                    JOINT RightForeArm
                    {
                        OFFSET -27.185530 0.000000 0.000000
                        CHANNELS 3 Zrotation Xrotation Yrotation
                        JOINT RightHand
                        {
                            OFFSET -27.825975 0.000000 0.000000
                            CHANNELS 3 Zrotation Xrotation Yrotation
                            End Site
                            {
                                OFFSET -13.236923 0.000000 0.000000
                            }
                        }
                    }
                }
            }
        }
    }
    JOINT LeftUpLeg
    {
        OFFSET 8.824615 0.000000 0.000000
        CHANNELS 3 Zrotation Xrotation Yrotation
        JOINT LeftLeg
        {
            OFFSET -0.000000 -35.111282 0.000000
            CHANNELS 3 Zrotation Xrotation Yrotation
            JOINT LeftFoot
            {
                OFFSET -0.000000 -42.324711 0.000000
                CHANNELS 3 Zrotation Xrotation Yrotation
                JOINT LeftToeBase
                {
                    OFFSET -0.000000 -5.735999 13.236923
                    CHANNELS 3 Zrotation Xrotation Yrotation
                    End Site
                    {
                        OFFSET -0.000000 0.000000 3.529846
                    }
                }
            }
        }
    }
    JOINT RightUpLeg
    {
        OFFSET -8.824615 0.000000 0.000000
        CHANNELS 3 Zrotation Xrotation Yrotation
        JOINT RightLeg
        {
            OFFSET -0.000000 -35.111282 0.000000
            CHANNELS 3 Zrotation Xrotation Yrotation
            JOINT RightFoot
            {
                OFFSET -0.000000 -42.324711 0.000000
                CHANNELS 3 Zrotation Xrotation Yrotation
                JOINT RightToeBase
                {
                    OFFSET -0.000000 -5.735999 13.236923
                    CHANNELS 3 Zrotation Xrotation Yrotation
                    End Site
                    {
                        OFFSET -0.000000 0.000000 3.529846
                    }
                }
            }
        }
    }
}
MOTION
Frames:    12
Frame Time:    0.008333
-8.574507    79.959877    108.131981    2.060629    -11.493772    -175.557510    -1.590515    -3.530716    0.173251    -1.383691    6.054601    0.295600    3.238582    -0.495537    -1.600380    -2.326202    -28.908918    -3.057516    -0.867458    14.536305    -11.558138    -35.957581    35.993519    -58.361755    19.628597    -20.078009    -27.556932    31.383080    -15.253139    0.719658    6.704625    15.790902    0.615275    36.863987    35.701462    50.056366    -28.693068    -20.184246    38.837360    -33.247257    -10.804842    2.056352    2.758152    -34.449543    0.341242    1.792954    39.098198    6.115762    -6.276869    -13.249558    -15.006387    0.387597    -1.350379    -0.430696    -3.734288    -29.462046    3.904829    0.586641    33.592812    5.205268    -0.319020    -10.390537    -15.344735    -1.880698    -3.690292    2.044753    
-8.421230    79.866119    108.152481    1.979942    -11.537609    -175.562668    -1.569182    -3.553442    0.127984    -1.248494    6.269031    0.245368    3.352662    -0.329134    -1.225763    -3.437174    -29.816612    -3.136612    -0.793097    14.463990    -11.619617    -36.006130    35.659954    -58.165768    19.617790    -19.758715    -27.275219    31.569849    -14.996357    0.647334    6.684875    15.854334    0.692282    36.756283    35.552589    50.050392    -28.558338    -20.079172    38.761982    -33.364849    -10.796797    2.152030    2.802902    -34.668934    0.425926    1.846580    39.378292    6.094483    -6.391208    -13.309617    -15.092666    0.388877    -1.357247    -0.432124    -3.686236    -29.787230    3.884303    0.556518    34.080673    5.279306    -0.360985    -10.577199    -15.397346    -1.879988    -3.641074    2.043833    
-8.267605    79.785118    108.158348    1.889740    -11.570106    -175.578125    -1.549009    -3.597080    0.091242    -1.117911    6.484275    0.203383    3.454874    -0.102549    -0.867335    -4.544186    -30.709013    -3.243800    -0.721188    14.395988    -11.639856    -36.176285    35.239044    -57.767872    19.569523    -19.322744    -27.032761    31.748552    -14.631881    0.540804    6.670904    15.909384    0.717582    36.760025    35.298851    49.865982    -28.357086    -19.906729    38.696987    -33.462097    -10.743582    2.261043    2.848570    -34.833843    0.504381    1.881133    39.607479    6.087446    -6.503842    -13.363243    -15.171289    0.384334    -1.366041    -0.427083    -3.647478    -30.061262    3.838767    0.513228    34.513226    5.384949    -0.402013    -10.754489    -15.443759    -1.880426    -3.590590    2.044159    
-8.111885    79.717293    108.149017    1.789450    -11.590808    -175.603897    -1.528612    -3.661298    0.061727    -0.990203    6.700109    0.169006    3.543812    0.186221    -0.521569    -5.657785    -31.589521    -3.379239    -0.652495    14.332118    -11.616923    -36.459202    34.732216    -57.174870    19.483141    -18.775133    -26.817196    31.926096    -14.167492    0.400325    6.662177    15.957041    0.692252    36.876217    34.938206    49.502956    -28.093275    -19.673006    38.637112    -33.539680    -10.650916    2.381134    2.895560    -34.942734    0.574802    1.895120    39.784492    6.096744    -6.615960    -13.409806    -15.242209    0.373647    -1.376850    -0.415216    -3.617441    -30.283424    3.769005    0.457288    34.890614    5.521035    -0.443175    -10.922509    -15.483745    -1.882070    -3.538473    2.045791    
-7.956738    79.665062    108.124161    1.681345    -11.598967    -175.639465    -1.507112    -3.743597    0.039765    -0.867105    6.909176    0.141619    3.613862    0.530353    -0.194987    -6.753197    -32.435230    -3.537230    -0.589202    14.273604    -11.548832    -36.834782    34.154945    -56.411041    19.360525    -18.136396    -26.621208    32.103279    -13.624413    0.229746    6.657641    15.997118    0.617790    37.101009    34.476086    48.971954    -27.777840    -19.389126    38.579987    -33.595406    -10.525676    2.507728    2.942930    -34.991058    0.633585    1.886786    39.902767    6.124204    -6.725406    -13.447369    -15.303373    0.356695    -1.389409    -0.396387    -3.596479    -30.446917    3.678679    0.391779    35.202206    5.681796    -0.484963    -11.076395    -15.516376    -1.884979    -3.485922    2.048795    
-7.800137    79.628830    108.083168    1.564667    -11.594778    -175.685059    -1.483031    -3.843025    0.023596    -0.746808    7.109620    0.120542    3.664600    0.931252    0.117372    -7.842659    -33.248764    -3.716710    -0.531201    14.218768    -11.432490    -37.290604    33.507019    -55.481758    19.200354    -17.410133    -26.431139    32.285671    -13.009603    0.028394    6.656005    16.029514    0.494829    37.432312    33.906124    48.272160    -27.414499    -19.058508    38.522778    -33.628368    -10.370707    2.640478    2.991012    -34.977787    0.680041    1.855744    39.960567    6.170223    -6.832955    -13.475171    -15.354156    0.333524    -1.403962    -0.370648    -3.583975    -30.551849    3.569394    0.318244    35.448494    5.865024    -0.528941    -11.216338    -15.541458    -1.889196    -3.432462    2.053217    
-7.644864    79.609856    108.026947    1.442293    -11.579154    -175.739639    -1.456021    -3.955787    0.013048    -0.630578    7.293585    0.104636    3.693612    1.377958    0.411086    -8.903728    -34.008839    -3.910256    -0.480074    14.167478    -11.269047    -37.797916    32.808178    -54.421936    19.005917    -16.623026    -26.239254    32.472691    -12.349845    -0.198261    6.655085    16.053440    0.328356    37.854874    33.238163    47.426960    -27.018450    -18.693945    38.465961    -33.636215    -10.192489    2.775934    3.038775    -34.903522    0.713170    1.803396    39.955166    6.232754    -6.935829    -13.491798    -15.392439    0.305085    -1.419905    -0.339054    -3.579538    -30.596495    3.446919    0.240975    35.623344    6.062387    -0.574506    -11.338341    -15.558205    -1.894547    -3.379244    2.058875    
-7.488775    79.608452    107.954910    1.313144    -11.553087    -175.803833    -1.425334    -4.080791    0.007732    -0.515763    7.458153    0.092019    3.700172    1.872138    0.691445    -9.947157    -34.718628    -4.115033    -0.434981    14.117350    -11.055010    -38.345432    32.057079    -53.232685    18.775276    -15.777967    -26.033234    32.667553    -11.651073    -0.450764    6.652522    16.068340    0.117921    38.363873    32.462002    46.435421    -26.593733    -18.296558    38.410259    -33.616161    -9.990642    2.914725    3.086496    -34.767982    0.733980    1.730780    39.884785    6.310294    -7.035036    -13.496424    -15.417520    0.271539    -1.437724    -0.301783    -3.582530    -30.581850    3.313435    0.161731    35.727173    6.271033    -0.623000    -11.442511    -15.566072    -1.900987    -3.325698    2.065711    
-7.332852    79.625008    107.867790    1.178706    -11.518410    -175.877197    -1.391092    -4.215466    0.004750    -0.402111    7.597817    0.083948    3.683204    2.405205    0.958693    -10.962252    -35.366062    -4.324373    -0.395868    14.067135    -10.790726    -38.911762    31.266333    -51.936440    18.510496    -14.894707    -25.805973    32.869190    -10.933021    -0.724605    6.645297    16.072683    -0.133303    38.943394    31.581059    45.315754    -26.153069    -17.874693    38.359325    -33.564610    -9.767427    3.054866    3.133642    -34.573502    0.743765    1.640676    39.748440    6.399302    -7.129306    -13.487964    -15.428077    0.234100    -1.457378    -0.260183    -3.592127    -30.509277    3.174105    0.083819    35.758003    6.483883    -0.674123    -11.526996    -15.564256    -1.908287    -3.272086    2.073481    
-7.176824    79.659561    107.765984    1.039468    -11.476943    -175.959610    -1.353443    -4.357589    0.005320    -0.287676    7.708101    0.077179    3.642710    2.973028    1.215144    -11.947536    -35.947212    -4.532708    -0.361885    14.015412    -10.475325    -39.481911    30.442581    -50.545181    18.212887    -13.986996    -25.550316    33.076843    -10.209322    -1.015926    6.629840    16.064793    -0.423932    39.579330    30.593437    44.079773    -25.706514    -17.433519    38.318470    -33.477749    -9.522754    3.195079    3.179955    -34.322346    0.744163    1.535896    39.545742    6.496484    -7.217501    -13.465904    -15.423161    0.193720    -1.478760    -0.215313    -3.607499    -30.380796    3.033039    0.009971    35.715321    6.694921    -0.727737    -11.590955    -15.551695    -1.916270    -3.218309    2.081992    
-7.020911    79.711769    107.650307    0.896389    -11.430881    -176.050568    -1.312934    -4.505120    0.007696    -0.171032    7.785355    0.071713    3.578120    3.569241    1.462432    -12.896559    -36.457016    -4.733391    -0.331709    13.961107    -10.110044    -40.042278    29.593689    -49.072968    17.885616    -13.071473    -25.262131    33.288811    -9.494946    -1.319196    6.602032    16.042763    -0.751528    40.253944    29.501139    42.743660    -25.266537    -16.980251    38.294563    -33.352074    -9.257070    3.332876    3.225129    -34.018337    0.737228    1.419808    39.277645    6.597967    -7.299299    -13.429631    -15.402317    0.151488    -1.501862    -0.168381    -3.627684    -30.199509    2.894982    -0.057072    35.599476    6.897619    -0.783639    -11.633723    -15.527699    -1.924791    -3.164295    2.091087    
-6.865873    79.780617    107.522224    0.751100    -11.382542    -176.148911    -1.270327    -4.655415    0.010915    -0.051005    7.826885    0.066692    3.490943    4.184656    1.701701    -13.802998    -36.890995    -4.920362    -0.304098    13.903225    -9.698557    -40.580620    28.729815    -47.538136    17.534891    -12.167259    -24.940561    33.502575    -8.805367    -1.627295    6.557811    16.004665    -1.112093    40.945580    28.312151    41.329685    -24.846478    -16.523792    38.295967    -33.185249    -8.971688    3.464720    3.268721    -33.667488    0.724867    1.296444    38.947849    6.699860    -7.374638    -13.379110    -15.366048    0.108531    -1.526954    -0.120640    -3.651560    -29.970100    2.764930    -0.114456    35.412926    7.085036    -0.840797    -11.655310    -15.491939    -1.933668    -3.110706    2.100568    
